<?xml version="1.0" encoding="UTF-8"?>
<svg width="24" height="24" viewBox="0 0 24 24" fill="none" xmlns="http://www.w3.org/2000/svg">
<path fill-rule="evenodd" clip-rule="evenodd" d="M3.26074 9.88364H21.248V11.3836H3.26074V9.88364Z" fill="currentColor"></path>
<path fill-rule="evenodd" clip-rule="evenodd" d="M15.6088 13.4962H17.1173V14.9962H15.6088V13.4962Z" fill="currentColor"></path>
<path fill-rule="evenodd" clip-rule="evenodd" d="M11.5045 13.4962H13.013V14.9962H11.5045V13.4962Z" fill="currentColor"></path>
<path fill-rule="evenodd" clip-rule="evenodd" d="M7.39117 13.4962H8.89974V14.9962H7.39117V13.4962Z" fill="currentColor"></path>
<path fill-rule="evenodd" clip-rule="evenodd" d="M15.6088 17.0912H17.1173V18.5912H15.6088V17.0912Z" fill="currentColor"></path>
<path fill-rule="evenodd" clip-rule="evenodd" d="M11.5045 17.0912H13.013V18.5912H11.5045V17.0912Z" fill="currentColor"></path>
<path fill-rule="evenodd" clip-rule="evenodd" d="M7.39117 17.0912H8.89974V18.5912H7.39117V17.0912Z" fill="currentColor"></path>
<path fill-rule="evenodd" clip-rule="evenodd" d="M16.7408 3.03467V7.57865H15.2408V3.03467H16.7408Z" fill="currentColor"></path>
<path fill-rule="evenodd" clip-rule="evenodd" d="M9.26855 3.03467V7.57865H7.76855V3.03467H9.26855Z" fill="currentColor"></path>
<path fill-rule="evenodd" clip-rule="evenodd" d="M3.17578 4.49536H21.3258V23.0347H3.17578V4.49536ZM4.67578 5.99536V21.5347H19.8258V5.99536H4.67578Z" fill="currentColor"></path>
</svg>